<?xml version="1.0" standalone="no"?>
<!DOCTYPE svg PUBLIC "-//W3C//DTD SVG 20010904//EN"
 "http://www.w3.org/TR/2001/REC-SVG-20010904/DTD/svg10.dtd">
<svg version="1.0" xmlns="http://www.w3.org/2000/svg"
 width="300.000000pt" height="300.000000pt" viewBox="0 0 300.000000 300.000000"
 preserveAspectRatio="xMidYMid meet">
<metadata>
Created by potrace 1.11, written by Peter Selinger 2001-2013
</metadata>
<g transform="translate(0.000000,300.000000) scale(0.100000,-0.100000)"
fill="#000000" stroke="none">
<path d="M1135 2672 c2 -3 -3 -11 -13 -18 -12 -9 -21 -9 -29 -2 -9 7 -13 7
-13 -2 0 -10 -3 -10 -15 0 -12 10 -16 9 -21 -5 -5 -13 -9 -14 -15 -3 -7 11 -9
11 -9 -1 0 -8 -7 -11 -20 -8 -13 3 -18 1 -13 -6 4 -7 0 -8 -12 -3 -16 6 -16 4
-4 -11 10 -12 10 -15 1 -9 -7 4 -20 2 -30 -6 -15 -12 -16 -11 -3 5 8 9 11 20
7 24 -3 3 -6 1 -6 -5 0 -6 -9 -14 -20 -17 -11 -4 -18 -10 -15 -14 2 -5 -8 -13
-23 -20 -26 -11 -26 -11 -7 5 18 15 18 16 2 10 -10 -3 -21 -6 -23 -6 -2 0 -4
-7 -4 -16 0 -8 -4 -13 -9 -10 -5 3 -11 -1 -15 -9 -3 -8 -12 -12 -21 -9 -11 5
-14 2 -8 -12 4 -12 3 -15 -5 -10 -7 4 -15 1 -18 -8 -3 -9 -11 -13 -17 -9 -6 4
-8 0 -4 -11 5 -12 -1 -20 -19 -28 -17 -8 -24 -18 -21 -29 3 -13 0 -16 -14 -14
-10 2 -22 -1 -25 -7 -4 -7 -2 -8 4 -4 17 10 9 -51 -8 -67 -10 -9 -11 -9 -6 0
5 9 2 11 -9 7 -14 -6 -14 -8 2 -20 17 -13 17 -13 -1 -14 -16 0 -16 -2 -5 -16
10 -13 10 -17 -2 -25 -8 -5 -10 -9 -5 -9 5 0 2 -8 -5 -17 -10 -11 -10 -14 -1
-9 15 9 16 -6 0 -22 -7 -7 -8 -12 -2 -12 5 0 10 -11 10 -25 0 -14 -4 -25 -8
-25 -4 0 -8 -5 -8 -11 0 -5 6 -7 13 -3 7 5 6 0 -3 -11 -9 -11 -10 -16 -2 -11
8 5 12 0 12 -13 0 -12 5 -22 10 -22 20 -3 25 -4 39 -13 11 -7 13 -5 7 10 -6
15 -2 14 20 -6 15 -14 25 -20 22 -15 -4 6 4 10 17 10 13 0 21 -4 17 -9 -3 -5
2 -7 11 -3 12 4 14 2 10 -9 -5 -14 -3 -14 15 -3 19 12 24 10 48 -11 24 -22 26
-23 20 -5 -6 15 -4 17 5 8 6 -6 18 -9 27 -5 12 4 14 1 8 -13 -7 -18 -6 -18 14
0 20 18 20 18 14 1 -6 -15 -4 -17 12 -9 23 12 47 6 37 -10 -4 -7 1 -6 10 2 15
12 17 11 18 -5 0 -18 1 -18 9 1 5 11 9 14 9 7 1 -8 13 -11 36 -9 20 3 38 0 42
-6 3 -6 1 -7 -5 -3 -7 4 -12 2 -12 -3 0 -14 17 -14 25 -1 4 6 13 3 23 -8 9
-10 14 -13 10 -7 -13 20 4 26 19 7 8 -9 12 -11 8 -4 -4 7 0 12 9 12 9 0 15 -4
14 -9 -2 -5 2 -9 7 -10 6 -1 10 3 10 8 0 19 13 21 26 4 12 -14 12 -16 0 -8 -9
5 -12 4 -7 -3 4 -6 13 -9 21 -6 8 4 13 9 11 13 -2 3 6 6 19 6 16 0 20 -4 14
-11 -5 -7 -3 -11 6 -11 8 0 15 7 15 16 0 13 2 14 9 2 5 -8 17 -16 25 -17 9 -1
14 2 10 7 -5 9 11 14 31 9 31 -7 135 -4 135 4 0 5 8 2 18 -7 15 -14 19 -15 19
-2 0 8 -4 12 -9 9 -4 -3 -5 2 -1 11 4 13 8 14 14 4 4 -7 23 -13 42 -14 20 0
34 3 31 6 -2 4 10 12 26 18 17 5 30 7 30 4 0 -3 8 1 18 8 15 13 16 12 3 -3 -8
-11 -9 -18 -3 -18 6 0 18 10 26 22 9 12 16 17 16 10 0 -18 30 -15 53 6 11 9
17 12 14 6 -4 -7 0 -15 9 -18 10 -4 13 -2 8 6 -5 8 -2 9 9 5 12 -4 17 -1 18
11 0 10 3 12 6 5 4 -12 6 -12 64 18 19 9 21 9 15 -6 -6 -16 -4 -16 11 -4 10 8
24 21 31 29 11 13 12 11 6 -10 l-7 -25 22 25 c13 14 20 19 16 13 -12 -24 10
-13 36 17 22 24 24 30 10 33 -12 3 -10 7 9 15 21 9 14 17 -12 13 -4 0 -5 6 -2
14 4 8 10 13 14 10 12 -8 6 21 -8 38 -9 10 -10 17 -2 22 5 3 10 11 10 16 0 6
-6 7 -12 3 -9 -5 -9 -2 1 9 10 13 10 17 1 17 -8 0 -10 8 -7 21 4 16 2 19 -10
15 -13 -5 -14 -4 -3 9 7 8 8 15 2 15 -5 0 -13 7 -16 16 -4 9 -2 13 5 8 6 -3 3
5 -6 20 -17 25 -34 38 -19 14 4 -7 3 -8 -5 -4 -9 6 -9 11 0 22 10 12 9 13 -6
8 -12 -5 -16 -4 -12 3 4 6 1 14 -5 16 -10 4 -9 8 2 16 13 10 13 11 0 12 -8 1
-21 1 -29 0 -7 -2 -10 2 -6 8 3 6 -1 11 -9 11 -8 0 -18 5 -22 12 -5 7 -3 8 6
3 9 -5 11 -4 6 4 -6 9 -11 9 -22 0 -9 -7 -14 -8 -13 -3 1 5 1 16 0 24 -1 13
-2 13 -11 0 -8 -12 -10 -12 -10 5 0 17 -2 17 -10 5 -8 -13 -10 -12 -10 3 0 9
5 17 12 17 6 0 8 3 4 7 -4 5 -14 -1 -22 -11 -13 -19 -14 -19 -14 5 0 19 -2 21
-10 9 -7 -11 -10 -11 -10 -2 0 7 -4 10 -10 7 -9 -6 -14 8 -11 28 1 5 -3 6 -9
2 -5 -3 -10 -14 -11 -23 0 -10 -5 -6 -11 11 -5 15 -14 25 -18 22 -5 -3 -6 -13
-3 -23 6 -16 6 -16 -11 0 -9 10 -15 22 -11 28 4 6 -1 7 -11 3 -13 -5 -15 -3
-9 7 5 9 4 11 -4 6 -9 -6 -9 -11 1 -23 12 -15 11 -15 -12 -2 -14 8 -28 19 -32
24 -5 6 -15 5 -29 -3 -11 -8 -18 -9 -15 -4 3 5 -9 16 -27 23 -44 19 -59 20
-76 6 -12 -9 -13 -9 -7 1 4 6 2 12 -3 12 -6 0 -11 -6 -11 -12 0 -10 -2 -10 -8
-1 -8 13 -29 12 -51 -1 -9 -6 -12 -5 -8 1 4 7 -31 11 -103 11 -77 0 -108 -3
-104 -10 5 -7 2 -8 -7 -2 -23 14 -51 16 -43 2 4 -7 3 -8 -5 -4 -14 9 -64 16
-56 8z m479 -23 c8 -9 6 -9 -11 0 -12 6 -23 7 -25 2 -2 -5 -9 -3 -16 5 -11 13
-9 14 14 10 15 -3 32 -10 38 -17z m-460 3 c3 -5 -1 -9 -9 -9 -8 0 -12 4 -9 9
3 4 7 8 9 8 2 0 6 -4 9 -8z m-464 -558 c0 -8 -19 -13 -24 -6 -3 5 1 9 9 9 8 0
15 -2 15 -3z"/>
<path d="M725 2470 c-3 -6 1 -7 9 -4 18 7 21 14 7 14 -6 0 -13 -4 -16 -10z"/>
<path d="M401 2023 c-6 -11 -11 -13 -11 -5 0 7 -5 10 -10 7 -6 -4 -7 -12 -3
-18 4 -7 0 -6 -10 2 -15 11 -17 11 -17 -2 0 -10 -7 -14 -22 -10 -19 4 -20 3
-8 -6 13 -9 13 -11 -2 -12 -32 -3 -36 -4 -45 -13 -5 -5 -2 -6 7 -2 9 5 8 2 -2
-7 -10 -8 -15 -16 -12 -19 3 -4 0 -9 -7 -14 -8 -4 -10 -3 -5 4 4 7 2 12 -3 12
-6 0 -11 -6 -11 -13 0 -7 -8 -17 -18 -23 -28 -18 -30 -150 -4 -175 11 -10 24
-15 28 -11 5 4 3 0 -4 -10 -10 -12 -10 -18 -1 -24 8 -5 10 -3 4 7 -4 8 1 5 12
-6 11 -11 18 -24 15 -29 -2 -4 5 -5 17 -1 12 3 21 3 20 -2 -1 -4 -1 -15 0 -23
1 -13 2 -13 11 0 8 13 10 12 10 -3 0 -10 4 -16 9 -13 15 9 42 -5 34 -18 -4 -6
2 -4 12 4 10 8 16 10 13 5 -4 -6 -3 -17 3 -25 7 -12 9 -11 9 4 0 20 0 20 16 0
8 -10 13 -13 9 -6 -3 6 -1 12 4 12 6 0 11 -4 11 -10 0 -5 5 -10 10 -10 6 0 18
-8 29 -19 14 -14 16 -23 8 -36 -7 -13 -6 -16 3 -10 9 5 10 2 5 -15 -12 -37
-13 -70 -2 -70 5 0 4 -7 -3 -15 -10 -12 -10 -15 0 -15 9 0 9 -4 -1 -17 -10
-11 -10 -14 -2 -9 8 4 13 1 13 -9 0 -9 -4 -13 -10 -10 -5 3 -10 1 -10 -4 0 -6
5 -11 12 -11 9 0 9 -3 0 -12 -17 -17 -15 -33 3 -18 20 16 19 6 -1 -14 -10 -10
-11 -16 -3 -16 8 0 8 -5 -2 -17 -10 -11 -10 -14 -1 -9 7 4 12 1 12 -9 0 -9 -4
-13 -10 -10 -5 3 -10 1 -10 -4 0 -6 5 -11 12 -11 9 0 9 -3 0 -12 -17 -17 -15
-33 3 -18 20 16 19 6 -1 -14 -10 -10 -11 -16 -3 -16 8 0 8 -5 -2 -17 -10 -11
-10 -14 -1 -9 7 4 12 1 12 -9 0 -9 -4 -13 -10 -10 -5 3 -10 1 -10 -4 0 -6 5
-11 11 -11 8 0 7 -6 -2 -17 -12 -15 -12 -16 3 -10 12 4 15 2 11 -8 -3 -8 -9
-12 -14 -9 -5 3 -9 0 -9 -5 0 -6 5 -11 11 -11 8 0 7 -6 -2 -17 -10 -11 -10
-14 -1 -9 7 4 12 1 12 -9 0 -9 -4 -13 -10 -10 -5 3 -10 1 -10 -4 0 -6 5 -11
12 -11 9 0 9 -3 0 -12 -19 -19 -14 -32 5 -17 16 12 16 11 -1 -15 -15 -24 -16
-28 -3 -23 11 4 14 2 10 -8 -3 -8 -9 -12 -14 -9 -5 3 -9 0 -9 -5 0 -6 5 -11
11 -11 8 0 7 -6 -2 -17 -10 -11 -10 -14 -1 -9 7 4 12 1 12 -9 0 -9 -4 -13 -10
-10 -5 3 -10 1 -10 -4 0 -6 5 -11 12 -11 9 0 9 -3 0 -12 -19 -19 -14 -32 5
-17 16 12 16 11 -1 -15 -15 -24 -16 -28 -3 -23 11 4 14 2 10 -8 -3 -8 -9 -12
-14 -9 -5 3 -9 0 -9 -5 0 -6 5 -11 11 -11 8 0 7 -6 -2 -17 -10 -11 -10 -14 -2
-9 8 4 13 1 13 -9 0 -9 -4 -13 -10 -10 -5 3 -10 1 -10 -4 0 -6 5 -11 12 -11 9
0 9 -3 0 -12 -19 -19 -14 -32 5 -17 16 13 16 11 -1 -15 -10 -16 -13 -25 -7
-22 6 4 11 3 11 -3 0 -5 -5 -13 -11 -16 -6 -5 -4 -12 8 -22 10 -8 12 -12 6 -8
-9 4 -11 1 -7 -9 3 -9 10 -13 15 -10 5 3 9 -1 9 -8 0 -7 12 -22 27 -32 14 -11
23 -15 20 -9 -8 12 17 25 28 15 12 -12 499 -10 514 2 12 9 13 7 8 -8 -6 -15
-5 -17 6 -8 8 7 18 8 22 4 5 -4 5 -1 1 6 -8 14 6 16 20 2 5 -5 15 -6 24 0 8 5
11 12 7 17 -5 4 -13 1 -18 -7 -9 -13 -10 -13 -6 0 2 8 13 16 25 16 12 1 19 -3
16 -8 -4 -5 2 -5 12 1 27 14 58 24 67 22 5 -1 6 3 3 8 -4 5 11 22 31 37 47 34
64 50 43 39 -8 -4 -2 4 14 17 22 19 27 30 22 49 -3 13 -3 18 0 12 3 -7 10 -13
15 -13 6 0 7 5 4 11 -4 5 1 20 12 31 10 12 13 19 7 15 -6 -4 -10 3 -8 16 1 12
3 23 4 25 3 3 7 19 9 32 0 6 6 10 12 10 5 0 7 -4 4 -10 -3 -5 -1 -10 4 -10 12
0 14 13 4 23 -9 10 -10 126 -1 121 5 -3 8 0 8 5 0 6 -3 11 -8 11 -4 0 -13 10
-21 21 -11 19 -11 21 1 16 8 -3 15 1 15 9 0 7 -4 11 -9 8 -4 -3 -8 0 -8 6 0 6
-5 8 -11 4 -7 -4 -7 1 1 16 7 13 8 20 2 16 -6 -3 -13 -2 -17 4 -3 5 -1 10 5
10 7 0 6 5 -2 14 -7 8 -17 12 -21 9 -5 -3 -4 5 3 17 7 12 8 20 3 17 -4 -3 -13
1 -20 8 -10 11 -10 15 0 18 8 4 8 6 -2 6 -16 1 -61 47 -53 55 3 3 -4 6 -16 6
-11 0 -27 8 -34 19 -7 10 -21 17 -31 15 -15 -2 -16 0 -5 14 7 9 8 14 4 10 -5
-4 -16 -2 -24 5 -13 10 -14 9 -8 -1 9 -16 -38 -6 -69 14 -13 8 -25 10 -35 4
-10 -6 -20 -4 -31 6 -13 12 -19 12 -25 3 -5 -8 -3 -10 6 -4 8 5 11 4 6 -3 -4
-6 -13 -9 -21 -6 -8 4 -12 10 -9 15 3 5 -5 5 -19 0 -17 -7 -29 -6 -37 2 -10 9
-11 9 -6 -1 6 -9 1 -11 -19 -8 -15 3 -30 7 -32 10 -3 3 -15 1 -27 -4 -13 -5
-30 -4 -42 3 -18 10 -18 9 -4 -8 14 -17 14 -18 -8 -6 -12 7 -20 17 -16 23 4 7
3 8 -4 4 -7 -4 -12 -4 -13 1 -6 60 -5 65 9 46 13 -17 13 -17 10 2 -2 11 -10
26 -18 33 -13 12 -13 13 2 8 12 -3 16 0 13 13 -2 10 3 18 10 18 7 0 11 -6 8
-13 -3 -8 2 -11 14 -9 10 2 22 4 26 4 5 1 5 5 2 11 -3 6 1 7 9 4 9 -3 14 -9
11 -13 -2 -4 2 -8 10 -8 8 0 12 4 9 9 -3 4 2 8 11 8 9 0 13 -4 10 -10 -3 -6 1
-7 9 -4 9 3 13 10 10 15 -3 5 2 6 10 3 9 -3 14 -9 11 -13 -2 -4 2 -8 10 -8 8
0 12 4 9 9 -3 4 2 8 10 8 9 0 16 -6 16 -12 0 -9 3 -9 8 -2 4 6 16 14 27 17 20
7 20 7 1 -8 -23 -17 -14 -20 14 -5 14 8 21 6 28 -6 8 -15 10 -15 15 0 5 12 3
15 -6 10 -6 -4 -8 -3 -4 1 11 13 38 15 31 3 -4 -6 -1 -8 7 -6 8 3 22 1 31 -3
10 -6 19 -5 23 1 3 5 11 10 16 10 6 0 7 -6 3 -12 -5 -9 -2 -9 9 1 11 8 17 9
17 3 0 -6 7 -9 15 -6 8 4 13 10 10 14 -2 4 9 6 25 4 18 -2 30 1 30 8 0 6 3 8
7 5 3 -4 11 3 18 16 8 15 8 24 1 29 -7 5 -6 8 3 8 11 0 11 3 0 17 -12 15 -12
16 4 10 10 -4 16 -3 12 2 -3 5 -2 11 2 14 5 2 1 2 -7 0 -8 -2 -11 -1 -7 3 4 4
1 14 -6 23 -10 14 -10 14 5 3 12 -10 18 -10 24 -1 5 8 3 9 -5 4 -15 -9 -11 35
4 48 6 5 3 7 -7 3 -12 -3 -18 0 -18 10 0 11 5 14 16 10 14 -5 15 -4 4 9 -7 8
-17 12 -24 9 -6 -3 -2 2 8 10 17 13 17 16 4 16 -9 0 -20 9 -23 20 -3 11 -11
20 -16 20 -6 0 -7 -4 -4 -10 4 -6 -1 -7 -11 -3 -11 4 -13 8 -6 11 7 2 9 9 6
14 -4 7 -2 8 4 4 7 -4 12 -1 12 8 0 9 5 16 11 16 5 0 8 -4 4 -9 -3 -5 -1 -12
5 -16 5 -3 10 -1 10 5 0 6 5 8 12 4 7 -5 21 -9 30 -9 15 -1 16 1 5 14 -10 13
-7 12 16 -2 15 -10 27 -13 27 -8 0 6 7 8 15 5 8 -4 12 -11 8 -17 -3 -6 -1 -7
6 -3 9 6 9 12 -1 24 -11 15 -11 15 3 5 9 -7 28 -14 42 -15 24 -2 25 -4 10 -20
-8 -9 -20 -16 -27 -15 -6 1 -12 -13 -14 -32 -3 -25 -6 -31 -13 -20 -5 9 -9 10
-9 2 0 -6 5 -15 10 -18 6 -3 10 -11 10 -16 0 -6 -4 -7 -10 -4 -17 10 -11 -7 8
-22 9 -8 12 -12 5 -9 -6 4 -14 2 -18 -4 -3 -5 -1 -10 6 -10 9 0 9 -3 0 -14 -9
-11 -8 -15 6 -21 17 -6 17 -7 -1 -21 -12 -8 -15 -14 -7 -14 11 0 11 -3 0 -17
-10 -11 -10 -14 -1 -9 7 4 12 1 12 -9 0 -9 -4 -13 -10 -10 -17 10 -11 -7 8
-22 9 -8 12 -12 5 -9 -6 4 -14 2 -18 -4 -3 -5 -1 -10 6 -10 8 0 8 -4 -1 -15
-10 -12 -10 -15 0 -15 9 0 9 -4 -1 -17 -10 -11 -10 -14 -1 -9 13 8 17 -6 5
-18 -11 -11 -10 -30 2 -38 6 -5 4 -8 -5 -8 -13 0 -13 -2 -1 -9 9 -6 11 -15 6
-27 -10 -25 -12 -114 -2 -114 4 0 7 -7 7 -16 0 -8 -4 -13 -9 -9 -5 3 -13 0
-17 -6 -4 -7 -3 -9 3 -6 6 4 17 0 24 -9 10 -12 10 -15 -1 -12 -7 2 -15 -3 -18
-11 -3 -10 0 -12 13 -7 15 6 16 4 4 -10 -16 -20 -21 -47 -6 -37 7 4 8 0 3 -13
-21 -53 -21 -50 -1 -34 16 13 18 13 10 0 -5 -8 -8 -29 -7 -48 2 -23 -1 -31 -9
-27 -6 4 -3 -5 7 -21 11 -15 14 -25 8 -21 -7 4 -15 0 -18 -9 -3 -8 -2 -12 4
-9 6 3 10 -1 10 -10 0 -9 -5 -13 -11 -9 -6 3 -3 -6 7 -22 11 -15 14 -25 8 -21
-13 8 -12 -62 1 -83 5 -8 4 -11 -3 -6 -6 3 -13 2 -17 -4 -3 -5 -1 -10 4 -10 6
0 11 -5 11 -11 0 -5 -4 -8 -8 -5 -4 2 -8 -6 -8 -20 0 -13 2 -24 6 -24 3 0 6
-14 7 -30 1 -18 -2 -28 -7 -25 -17 11 -11 -7 8 -22 9 -8 11 -12 5 -8 -9 4 -11
1 -7 -9 3 -9 10 -13 15 -10 5 3 9 -2 9 -10 0 -8 5 -18 12 -22 7 -5 8 -3 3 7
-5 8 2 5 15 -6 14 -12 20 -14 15 -5 -7 12 -6 13 6 3 8 -6 42 -10 81 -9 46 2
65 -1 61 -8 -5 -7 -2 -7 8 0 8 6 22 10 32 8 11 -1 16 0 13 3 -9 9 32 35 44 28
6 -3 7 1 4 9 -3 9 -1 16 5 16 6 0 11 5 11 11 0 5 -6 7 -12 3 -10 -5 -10 -4 -1
6 7 8 9 20 3 35 -5 13 -6 26 -3 29 3 3 1 11 -4 18 -26 33 -19 148 8 148 6 0 6
7 1 18 -5 9 -7 23 -5 30 3 6 -1 12 -9 12 -8 0 -7 4 5 11 9 6 15 14 12 20 -4 5
0 9 7 10 7 0 4 5 -7 10 l-20 9 20 -3 c11 -2 19 -9 17 -18 -10 -38 -9 -47 0
-60 8 -11 9 -11 4 3 -3 10 -1 20 4 23 6 4 10 -3 10 -15 0 -12 5 -18 10 -15 6
3 10 1 10 -5 0 -6 9 -21 20 -33 11 -12 18 -27 16 -34 -3 -7 -1 -13 5 -13 6 0
7 -4 4 -10 -3 -5 -2 -10 3 -10 6 0 12 -10 16 -23 3 -12 15 -32 26 -45 11 -12
19 -22 16 -22 -2 0 -1 -13 4 -30 5 -16 5 -30 0 -30 -14 0 -5 -32 13 -45 9 -7
14 -15 10 -18 -7 -8 25 -9 170 -9 134 1 150 12 142 89 -3 31 -8 60 -11 65 -3
4 0 8 7 8 8 0 9 3 0 13 -6 8 -8 17 -4 20 3 4 1 7 -6 7 -7 0 -9 4 -6 10 3 5 2
10 -2 10 -5 0 -14 14 -20 31 -10 24 -9 28 1 20 9 -8 13 -7 13 4 0 7 -3 14 -6
13 -27 -3 -33 3 -21 18 11 12 11 15 -1 12 -8 -2 -13 3 -11 9 1 7 -3 13 -9 13
-5 0 -8 4 -4 9 3 6 -3 14 -12 20 -13 8 -14 10 -4 11 11 0 10 4 -5 16 -10 8
-12 12 -4 8 12 -6 12 -3 -2 12 -9 10 -18 30 -20 44 -2 14 -9 24 -15 23 -6 -1
-9 6 -6 17 4 15 0 20 -13 20 -16 0 -17 2 -4 10 11 7 11 10 2 10 -8 0 -10 5 -6
12 5 7 2 9 -9 5 -12 -4 -14 -2 -10 10 4 11 2 14 -5 9 -7 -4 -10 1 -7 13 2 11
-4 26 -13 33 -16 12 -16 11 -2 -7 14 -18 13 -19 -1 -8 -9 7 -18 11 -21 8 -2
-3 -4 13 -4 36 1 30 7 46 23 59 23 18 32 37 13 25 -6 -3 -10 1 -10 10 0 9 3
14 8 11 4 -2 15 9 25 26 15 25 15 29 2 18 -13 -11 -14 -10 -9 4 3 9 10 16 16
16 5 0 6 5 3 10 -3 6 -1 10 4 10 6 0 11 5 11 11 0 5 -4 8 -8 5 -4 -2 -8 4 -8
14 0 10 3 18 6 18 18 -2 30 3 30 13 0 5 -6 7 -12 3 -7 -4 -6 1 3 12 9 10 15
24 12 30 -2 6 3 11 11 11 8 0 12 -5 9 -11 -4 -6 3 -3 14 7 11 9 23 14 27 10
11 -11 36 -12 36 -2 0 6 5 7 11 4 6 -4 17 2 25 14 9 12 20 18 27 14 7 -4 5 2
-3 12 -13 17 -13 18 1 13 12 -5 15 0 14 21 -1 15 -5 33 -10 41 -5 8 -4 11 3 6
6 -4 11 1 11 11 1 45 4 50 29 45 17 -3 23 -1 18 7 -5 7 1 11 14 11 11 0 23 7
26 15 4 8 11 12 17 8 6 -4 8 0 4 11 -4 11 -3 15 4 11 6 -4 13 2 16 14 3 12 12
21 20 21 12 0 13 3 4 14 -9 11 -9 16 0 22 8 5 10 3 4 -7 -5 -8 -4 -10 0 -6 14
12 15 38 2 31 -8 -5 -7 -2 1 7 14 16 16 33 2 24 -13 -8 -13 1 0 26 8 14 7 19
-1 19 -6 0 -9 8 -6 19 3 12 -1 18 -12 17 -10 -1 -15 5 -13 17 2 9 -3 17 -10
17 -19 0 -45 33 -40 49 3 10 0 11 -17 2 -12 -7 -21 -8 -20 -4 3 20 -3 29 -21
29 -11 0 -20 -5 -20 -10 0 -5 -3 -6 -6 -3 -4 4 -1 13 6 22 14 17 3 20 -19 6
-9 -6 -23 -4 -40 7 -14 10 -22 12 -18 5 10 -17 -5 -17 -22 0 -11 10 -13 9 -8
-5 4 -12 2 -15 -8 -11 -8 3 -12 9 -9 14 3 5 -6 5 -19 0 -14 -6 -28 -7 -33 -3
-4 4 -5 2 -1 -3 3 -6 -3 -16 -14 -23 -10 -7 -18 -9 -17 -5 2 5 -1 8 -7 8 -5 0
-9 -4 -7 -9 2 -5 -4 -4 -12 4 -13 10 -16 10 -16 -1 0 -11 -2 -11 -10 1 -9 13
-14 7 -11 -12 0 -5 -3 -8 -9 -8 -5 0 -10 4 -10 9 0 5 -9 7 -19 4 -13 -3 -18
-11 -15 -21 4 -14 3 -13 -6 1 -11 17 -14 17 -34 3 -18 -11 -26 -12 -36 -3 -10
9 -10 6 0 -13 12 -22 12 -24 -3 -12 -13 11 -17 10 -25 -4 -6 -11 -11 -13 -16
-5 -4 6 -2 11 3 11 6 0 11 5 11 12 0 6 -10 2 -22 -9 -14 -12 -32 -19 -46 -17
-13 2 -21 0 -18 -5 3 -4 -6 -7 -19 -5 -14 1 -25 -3 -25 -9 0 -7 -5 -6 -11 3
-8 12 -12 12 -16 2 -4 -10 -8 -10 -19 -1 -12 10 -13 9 -8 -6 5 -13 4 -16 -5
-11 -6 4 -27 9 -46 10 -27 3 -32 0 -28 -13 5 -12 3 -13 -7 -4 -15 14 -43 5
-33 -11 4 -6 -1 -5 -10 3 -9 7 -17 9 -17 4 0 -11 -42 -9 -61 3 -9 5 -10 2 -6
-9 4 -11 2 -14 -8 -10 -8 3 -12 10 -8 17 3 6 -4 2 -17 -9 -20 -17 -23 -18 -17
-2 4 9 2 17 -3 17 -6 0 -10 -5 -10 -11 0 -8 -5 -7 -15 1 -9 7 -18 10 -22 6 -3
-3 -1 -6 5 -6 7 0 12 -5 12 -10 0 -7 -6 -7 -19 0 -25 13 -34 13 -26 -1 4 -6
-3 -5 -14 3 -18 11 -23 11 -31 -2 -6 -10 -10 -11 -10 -2 0 6 -7 12 -16 12 -9
0 -12 -5 -8 -12 4 -7 -2 -5 -13 5 -21 18 -22 18 -32 0 -6 -10 -11 -12 -11 -5
0 15 -30 16 -30 1 0 -6 -7 -3 -16 5 -11 12 -20 13 -33 6 -10 -5 -21 -7 -24 -4
-8 9 -66 11 -61 3 2 -4 -4 -6 -13 -5 -9 2 -19 8 -21 15 -3 8 -9 6 -18 -6 -13
-17 -14 -17 -7 2 3 11 3 17 -2 13 -4 -4 -14 -3 -22 4 -11 8 -17 8 -26 -2 -9
-10 -9 -11 1 -6 17 10 38 -4 21 -14 -13 -9 -50 10 -43 21 2 4 -10 4 -27 -1
-26 -8 -35 -6 -45 8 -11 14 -13 14 -14 2 0 -13 -2 -13 -9 -1 -6 9 -19 12 -40
8 -16 -4 -33 -2 -36 3 -4 6 -11 8 -16 5 -5 -4 -9 -1 -9 6 0 8 -5 7 -17 -2 -14
-12 -16 -12 -8 0 6 11 3 13 -13 9 -12 -4 -25 -1 -29 4 -3 6 -1 8 5 4 6 -3 13
-2 16 3 4 5 -2 8 -11 6 -10 -1 -24 2 -31 8 -9 7 -11 5 -6 -9 5 -17 4 -18 -8
-2 -11 13 -18 14 -33 5 -19 -10 -19 -9 -5 8 9 11 10 16 3 11 -7 -4 -13 -3 -13
3 0 5 -8 8 -17 6 -10 -2 -18 -4 -18 -5 0 -1 -8 -3 -18 -5 -9 -2 -15 1 -11 6 3
5 11 6 17 3 7 -4 9 -3 4 1 -13 14 -49 17 -41 3 4 -7 -8 -1 -26 12 -18 13 -31
20 -28 14 4 -5 -2 -10 -13 -10 -10 0 -19 4 -19 9 0 4 -8 4 -17 -2 -13 -7 -23
-5 -35 5 -14 14 -17 14 -27 -3z m1329 -123 c0 -5 -4 -10 -10 -10 -5 0 -10 5
-10 10 0 6 5 10 10 10 6 0 10 -4 10 -10z m-1494 -12 c4 -7 3 -8 -4 -4 -7 4
-12 2 -12 -5 0 -7 -3 -10 -6 -6 -6 5 3 27 11 27 2 0 7 -5 11 -12z m1640 -173
c-2 -7 10 -10 35 -8 24 2 39 -1 39 -8 0 -6 6 -9 14 -6 8 3 22 -3 32 -14 16
-18 16 -19 0 -19 -9 0 -15 -4 -11 -9 3 -6 -4 -15 -15 -21 -11 -6 -20 -18 -20
-26 0 -8 -4 -13 -9 -9 -5 3 -13 0 -17 -6 -4 -7 -3 -9 3 -6 6 4 13 0 16 -8 4
-9 1 -12 -9 -8 -17 6 -18 -8 -1 -26 10 -10 8 -11 -7 -5 -16 6 -18 4 -13 -11 6
-14 5 -16 -6 -7 -11 9 -13 7 -12 -11 1 -12 -3 -25 -9 -29 -8 -5 -7 -8 2 -8 6
0 12 -5 12 -11 0 -5 -4 -7 -10 -4 -5 3 -10 1 -10 -5 0 -6 -4 -8 -10 -5 -5 3
-10 -1 -10 -9 0 -10 6 -13 18 -10 14 5 14 4 2 -4 -19 -14 -40 3 -35 29 2 10 0
19 -6 19 -5 0 -9 5 -9 11 0 5 6 7 13 3 8 -5 8 -2 -2 9 -12 16 -8 22 12 18 5
-1 6 3 2 9 -3 6 -11 8 -16 5 -13 -8 -11 9 2 22 8 8 7 13 -2 18 -8 6 -10 4 -4
-5 5 -9 4 -11 -4 -6 -16 10 -2 29 16 21 13 -4 14 -3 3 10 -7 8 -17 12 -23 8
-6 -3 -7 -1 -3 5 4 6 14 9 24 6 15 -5 15 -4 -1 6 -9 6 -15 15 -12 21 13 20 13
48 1 43 -9 -3 -11 4 -8 24 3 22 9 28 28 28 14 0 23 -5 20 -11z m-41 -273 c1
-4 6 -17 13 -29 9 -16 9 -23 2 -23 -6 0 -8 -5 -4 -12 13 -21 12 -46 -3 -41 -7
3 -13 10 -14 17 -4 76 -4 104 1 100 3 -3 5 -9 5 -12z m-965 -466 c0 -3 -4 -8
-10 -11 -5 -3 -10 -1 -10 4 0 6 5 11 10 11 6 0 10 -2 10 -4z m90 -11 c9 11 16
12 25 5 8 -6 16 -5 24 3 10 9 11 9 6 -3 -4 -11 1 -16 14 -16 16 0 18 3 8 16
-11 13 -10 13 7 0 10 -8 31 -15 47 -15 15 0 32 -5 36 -9 4 -5 2 -6 -4 -2 -20
11 -15 -5 6 -23 21 -18 22 -34 3 -67 -6 -12 -9 -24 -6 -26 3 -3 -2 -8 -11 -12
-11 -4 -14 -2 -9 7 6 8 3 8 -9 -1 -9 -8 -21 -11 -26 -8 -5 4 -17 -4 -25 -16
-16 -22 -20 -16 -17 22 1 8 -5 4 -13 -10 -14 -22 -21 -21 -17 3 1 5 -3 6 -9 2
-6 -3 -8 -11 -5 -16 4 -5 1 -9 -4 -9 -6 0 -11 4 -11 9 0 5 -7 12 -16 15 -13 5
-14 4 -6 -7 9 -10 8 -14 -3 -14 -8 0 -15 4 -15 9 0 4 -5 8 -11 8 -5 0 -7 -6
-3 -12 4 -7 4 -10 -1 -6 -4 4 -15 2 -23 -5 -13 -10 -14 -9 -7 2 6 11 4 13 -8
8 -9 -3 -19 -2 -22 4 -4 5 -10 7 -14 4 -5 -2 -8 7 -8 20 0 14 4 25 9 25 5 0 6
5 3 10 -4 6 -11 7 -17 4 -7 -4 -8 -2 -4 5 4 6 11 9 16 6 5 -3 12 0 16 6 4 8 3
9 -4 5 -7 -4 -12 -2 -12 4 0 6 -6 8 -12 5 -7 -4 -5 0 4 8 18 15 14 62 -5 50
-6 -3 -7 -1 -3 6 4 6 13 8 19 4 7 -4 24 -8 40 -8 20 -1 26 3 22 13 -4 12 -1
11 19 -1 21 -14 26 -14 36 -2z m-113 -181 c-3 -3 -12 -4 -19 -1 -8 3 -5 6 6 6
11 1 17 -2 13 -5z"/>
<path d="M1125 891 c-3 -5 -2 -12 3 -15 5 -3 9 1 9 9 0 17 -3 19 -12 6z"/>
<path d="M835 2030 c-3 -5 -1 -10 4 -10 6 0 11 5 11 10 0 6 -2 10 -4 10 -3 0
-8 -4 -11 -10z"/>
<path d="M840 1940 c-9 -6 -10 -10 -3 -10 6 0 15 5 18 10 8 12 4 12 -15 0z"/>
<path d="M2110 1180 c-6 -11 -8 -20 -6 -20 3 0 10 9 16 20 6 11 8 20 6 20 -3
0 -10 -9 -16 -20z"/>
<path d="M1462 785 c4 -4 3 -14 -3 -21 -7 -9 -6 -14 3 -20 7 -4 10 -4 6 1 -4
4 -3 14 3 21 7 9 6 14 -3 20 -7 4 -10 4 -6 -1z"/>
</g>
</svg>
